# Blender v2.79 (sub 0) OBJ File: 'tile.blend'
# www.blender.org
mtllib tile.mtl
o Cylinder
v 0.000000 0.003980 -1.000000
v 0.000000 0.196020 -0.796546
v 0.866025 0.003980 -0.500000
v 0.689829 0.196020 -0.398273
v 0.866025 0.003980 0.500000
v 0.689829 0.196020 0.398273
v -0.000000 0.003980 1.000000
v -0.000000 0.196020 0.796546
v -0.866025 0.003980 0.500000
v -0.689829 0.196020 0.398273
v -0.866025 0.003980 -0.500000
v -0.689829 0.196020 -0.398273
v 0.866025 0.120836 -0.500000
v 0.000000 0.120836 -1.000000
v 0.866025 0.120836 0.500000
v -0.000000 0.120836 1.000000
v -0.866025 0.120836 0.500000
v -0.866025 0.120836 -0.500000
vn 0.5000 0.0000 -0.8660
vn 1.0000 0.0000 0.0000
vn 0.5000 0.0000 0.8660
vn -0.5000 0.0000 0.8660
vn 0.0000 1.0000 0.0000
vn -1.0000 0.0000 0.0000
vn -0.5000 0.0000 -0.8660
vn 0.0000 -1.0000 0.0000
vn 0.1962 0.9198 -0.3399
vn 0.3925 0.9198 0.0000
vn 0.1962 0.9198 0.3399
vn -0.1962 0.9198 0.3399
vn -0.3925 0.9198 0.0000
vn -0.1962 0.9198 -0.3399
usemtl None
s off
f 1//1 14//1 13//1 3//1
f 3//2 13//2 15//2 5//2
f 5//3 15//3 16//3 7//3
f 7//4 16//4 17//4 9//4
f 4//5 2//5 12//5 10//5 8//5 6//5
f 9//6 17//6 18//6 11//6
f 11//7 18//7 14//7 1//7
f 1//8 3//8 5//8 7//8 9//8 11//8
f 2//9 4//9 13//9 14//9
f 4//10 6//10 15//10 13//10
f 6//11 8//11 16//11 15//11
f 8//12 10//12 17//12 16//12
f 10//13 12//13 18//13 17//13
f 12//14 2//14 14//14 18//14
