# Blender v2.79 (sub 0) OBJ File: 'arrow.blend'
# www.blender.org
mtllib arrow.mtl
o Plane_Plane.001
v 0.004987 0.251881 -0.418250
v 0.004987 0.170123 -0.418250
v 0.000000 0.211002 -0.500007
v -0.004987 0.251881 -0.418250
v -0.004987 0.170123 -0.418250
vn 0.9981 0.0000 -0.0609
vn -0.9981 -0.0000 -0.0609
vn 0.0000 0.8944 -0.4472
vn 0.0000 0.0000 1.0000
vn 0.0000 -0.8944 -0.4472
usemtl None
s off
f 1//1 2//1 3//1
f 4//2 3//2 5//2
f 1//3 3//3 4//3
f 2//4 1//4 4//4 5//4
f 3//5 2//5 5//5
o Cylinder.001_Cylinder.003
v 0.000000 0.216009 -0.429096
v 0.000000 0.216009 1.084146
v 0.006048 0.212517 -0.429096
v 0.006048 0.212517 1.084146
v 0.006048 0.205533 -0.429096
v 0.006048 0.205533 1.084146
v -0.000000 0.202041 -0.429096
v -0.000000 0.202041 1.084146
v -0.006048 0.205533 -0.429096
v -0.006048 0.205533 1.084146
v -0.006048 0.212517 -0.429096
v -0.006048 0.212517 1.084146
vn 0.5000 0.8660 0.0000
vn 1.0000 -0.0000 -0.0000
vn 0.5000 -0.8660 -0.0000
vn -0.5000 -0.8660 -0.0000
vn -0.0000 0.0000 1.0000
vn -1.0000 0.0000 0.0000
vn -0.5000 0.8660 0.0000
vn -0.0000 0.0000 -1.0000
usemtl None
s off
f 6//6 7//6 9//6 8//6
f 8//7 9//7 11//7 10//7
f 10//8 11//8 13//8 12//8
f 12//9 13//9 15//9 14//9
f 9//10 7//10 17//10 15//10 13//10 11//10
f 14//11 15//11 17//11 16//11
f 16//12 17//12 7//12 6//12
f 6//13 8//13 10//13 12//13 14//13 16//13
o Cylinder_Cylinder.002
v -0.000000 -0.817424 0.070377
v -0.000000 -0.916397 -0.920933
v 0.006144 -0.817424 0.072922
v 0.707107 -0.916397 -0.628040
v 0.008689 -0.817424 0.079067
v 1.000000 -0.916397 0.079067
v 0.006144 -0.817424 0.085211
v 0.707107 -0.916397 0.786173
v -0.000000 -0.817424 0.087756
v -0.000000 -0.916397 1.079067
v -0.006144 -0.817424 0.085211
v -0.707107 -0.916397 0.786173
v -0.008689 -0.817424 0.079067
v -1.000000 -0.916397 0.079067
v -0.006144 -0.817424 0.072922
v -0.707107 -0.916397 -0.628040
v -0.000000 -0.817424 -0.920933
v 0.707107 -0.817424 -0.628040
v 1.000000 -0.817424 0.079067
v 0.707107 -0.817424 0.786173
v -0.000000 -0.817424 1.079067
v -0.707107 -0.817424 0.786173
v -1.000000 -0.817424 0.079067
v -0.707107 -0.817424 -0.628040
v 0.000000 1.250879 0.070377
v 0.006144 1.250879 0.072922
v 0.008689 1.250879 0.079067
v 0.006144 1.250879 0.085211
v 0.000000 1.250879 0.087756
v -0.006144 1.250879 0.085211
v -0.008689 1.250879 0.079067
v -0.006144 1.250879 0.072922
v -0.012276 -0.472707 -0.188231
v -0.014579 -0.127990 -0.355845
v -0.015166 0.216727 -0.398585
v -0.014578 0.561445 -0.355845
v -0.012275 0.906162 -0.188231
v -0.017360 0.906162 -0.175955
v -0.020617 0.561445 -0.341267
v -0.021448 0.216727 -0.383419
v -0.020617 -0.127990 -0.341267
v -0.017360 -0.472707 -0.175955
v -0.012276 -0.472707 -0.163680
v -0.014579 -0.127990 -0.326688
v -0.015166 0.216727 -0.368254
v -0.014578 0.561445 -0.326688
v -0.012275 0.906162 -0.163680
v 0.000000 0.906162 -0.158596
v 0.000000 0.561445 -0.320650
v 0.000000 0.216727 -0.361972
v -0.000000 -0.127990 -0.320650
v -0.000000 -0.472707 -0.158596
v 0.012275 -0.472707 -0.163680
v 0.014578 -0.127990 -0.326688
v 0.015166 0.216727 -0.368254
v 0.014579 0.561445 -0.326688
v 0.012276 0.906162 -0.163680
v 0.017360 0.906162 -0.175955
v 0.020617 0.561445 -0.341267
v 0.021448 0.216727 -0.383419
v 0.020617 -0.127990 -0.341267
v 0.017360 -0.472707 -0.175955
v 0.012275 -0.472707 -0.188231
v 0.014578 -0.127990 -0.355845
v 0.015166 0.216727 -0.398585
v 0.014579 0.561445 -0.355845
v 0.012276 0.906162 -0.188231
v 0.000000 0.906162 -0.193315
v 0.000000 0.561445 -0.361884
v 0.000000 0.216727 -0.404867
v -0.000000 -0.127990 -0.361884
v -0.000000 -0.472707 -0.193315
v -0.008689 0.216727 1.101597
v -0.006144 0.216727 1.107741
v 0.000000 0.216727 1.110286
v 0.006144 0.216727 1.107741
v 0.008689 0.216727 1.101597
v 0.006144 0.216727 1.095453
v -0.006144 0.216727 1.095453
v 0.000000 0.216727 1.092908
vn 0.3827 0.0000 -0.9239
vn 0.9239 0.0000 -0.3827
vn 0.9239 0.0000 0.3827
vn 0.3827 0.0000 0.9239
vn -0.3827 0.0000 0.9239
vn -0.9239 0.0000 0.3827
vn 0.0000 -1.0000 0.0000
vn -0.9239 0.0000 -0.3827
vn -0.3827 0.0000 -0.9239
vn -0.8834 0.2929 -0.3659
vn 0.0000 1.0000 0.0000
vn 0.8641 0.3539 -0.3579
vn -0.3194 -0.5510 0.7710
vn 0.8942 -0.2515 0.3704
vn 0.3125 0.5771 -0.7545
vn -0.3125 0.5771 -0.7545
vn -0.8942 -0.2515 0.3704
vn 0.3194 -0.5510 0.7710
vn 0.8834 0.2929 -0.3659
vn 0.8834 -0.2929 -0.3659
vn 0.9073 -0.1888 -0.3758
vn 0.9228 -0.0490 -0.3822
vn 0.9228 0.0490 -0.3822
vn 0.9073 0.1888 -0.3758
vn 0.3194 0.5510 0.7710
vn 0.3510 0.3984 0.8474
vn 0.3804 0.1101 0.9183
vn 0.3804 -0.1101 0.9183
vn 0.3510 -0.3984 0.8474
vn -0.8942 0.2515 0.3704
vn -0.9101 0.1722 0.3770
vn -0.9230 0.0445 0.3823
vn -0.9230 -0.0445 0.3823
vn -0.9101 -0.1722 0.3770
vn -0.3125 -0.5771 -0.7545
vn -0.3487 -0.4117 -0.8419
vn -0.3802 -0.1144 -0.9178
vn -0.3802 0.1144 -0.9178
vn -0.3487 0.4117 -0.8419
vn 0.3125 -0.5771 -0.7545
vn 0.3487 -0.4117 -0.8419
vn 0.3802 -0.1144 -0.9178
vn 0.3802 0.1144 -0.9178
vn 0.3487 0.4117 -0.8419
vn 0.8942 0.2515 0.3704
vn 0.9101 0.1722 0.3770
vn 0.9230 0.0445 0.3823
vn 0.9230 -0.0445 0.3823
vn 0.9101 -0.1722 0.3770
vn -0.3194 0.5510 0.7710
vn -0.3510 0.3984 0.8474
vn -0.3804 0.1101 0.9183
vn -0.3804 -0.1101 0.9183
vn -0.3510 -0.3984 0.8474
vn -0.8834 -0.2929 -0.3659
vn -0.9073 -0.1888 -0.3758
vn -0.9228 -0.0490 -0.3822
vn -0.9228 0.0490 -0.3822
vn -0.9073 0.1888 -0.3758
vn -0.2825 0.6745 -0.6821
vn -0.8641 -0.3539 0.3579
vn 0.8641 -0.3539 0.3579
vn 0.2825 0.6745 -0.6821
vn -0.8641 0.3539 -0.3579
vn -0.2825 -0.6745 0.6821
vn 0.2825 -0.6745 0.6821
vn 0.2826 0.6744 0.6821
vn -0.2825 0.6745 0.6821
vn -0.8641 -0.3539 -0.3579
vn 0.2826 -0.6745 -0.6821
vn 0.8641 0.3539 0.3579
vn -0.8641 0.3539 0.3579
vn -0.2826 -0.6745 -0.6821
vn 0.8641 -0.3539 -0.3579
usemtl None
s off
f 34//14 35//14 21//14 19//14
f 35//15 36//15 23//15 21//15
f 36//16 37//16 25//16 23//16
f 37//17 38//17 27//17 25//17
f 38//18 39//18 29//18 27//18
f 39//19 40//19 31//19 29//19
f 21//20 23//20 25//20 27//20 29//20 31//20 33//20 19//20
f 40//21 41//21 33//21 31//21
f 41//22 34//22 19//22 33//22
f 55//23 48//23 49//23 54//23
f 20//24 35//24 34//24 18//24
f 22//24 36//24 35//24 20//24
f 24//24 37//24 36//24 22//24
f 26//24 38//24 37//24 24//24
f 28//24 39//24 38//24 26//24
f 30//24 40//24 39//24 28//24
f 32//24 41//24 40//24 30//24
f 18//24 34//24 41//24 32//24
f 91//25 28//25 30//25 90//25
f 65//26 46//26 47//26 64//26
f 75//27 44//27 45//27 74//27
f 85//28 42//28 43//28 84//28
f 54//29 49//29 42//29 85//29
f 64//30 47//30 48//30 55//30
f 74//31 45//31 46//31 65//31
f 84//32 43//32 44//32 75//32
f 20//33 80//33 79//33 22//33
f 80//34 81//34 78//34 79//34
f 81//35 82//35 77//35 78//35
f 82//36 83//36 76//36 77//36
f 83//37 84//37 75//37 76//37
f 24//38 70//38 69//38 26//38
f 70//39 71//39 68//39 69//39
f 71//40 72//40 67//40 68//40
f 72//41 73//41 66//41 67//41
f 73//42 74//42 65//42 66//42
f 28//43 60//43 59//43 30//43
f 60//44 61//44 58//44 59//44
f 61//45 62//45 57//45 58//45
f 62//46 63//46 56//46 57//46
f 63//47 64//47 55//47 56//47
f 32//48 50//48 89//48 18//48
f 50//49 51//49 88//49 89//49
f 51//50 52//50 87//50 88//50
f 52//51 53//51 86//51 87//51
f 53//52 54//52 85//52 86//52
f 18//53 89//53 80//53 20//53
f 89//54 88//54 81//54 80//54
f 88//55 87//55 82//55 81//55
f 87//56 86//56 83//56 82//56
f 86//57 85//57 84//57 83//57
f 22//58 79//58 70//58 24//58
f 79//59 78//59 71//59 70//59
f 78//60 77//60 72//60 71//60
f 77//61 76//61 73//61 72//61
f 76//62 75//62 74//62 73//62
f 26//63 69//63 60//63 28//63
f 69//64 68//64 61//64 60//64
f 68//65 67//65 62//65 61//65
f 67//66 66//66 63//66 62//66
f 66//67 65//67 64//67 63//67
f 30//68 59//68 50//68 32//68
f 59//69 58//69 51//69 50//69
f 58//70 57//70 52//70 51//70
f 57//71 56//71 53//71 52//71
f 56//72 55//72 54//72 53//72
f 18//24 32//24 30//24 28//24 26//24 24//24 22//24 20//24
f 93//73 24//73 26//73 92//73
f 95//74 20//74 22//74 94//74
f 90//75 30//75 32//75 96//75
f 92//76 26//76 28//76 91//76
f 94//77 22//77 24//77 93//77
f 97//78 18//78 20//78 95//78
f 96//79 32//79 18//79 97//79
f 42//20 43//20 44//20 45//20 46//20 47//20 48//20 49//20
f 49//80 96//80 97//80 42//80
f 42//81 97//81 95//81 43//81
f 44//82 94//82 93//82 45//82
f 46//83 92//83 91//83 47//83
f 48//84 90//84 96//84 49//84
f 43//85 95//85 94//85 44//85
f 45//86 93//86 92//86 46//86
f 47//87 91//87 90//87 48//87
l 47 49
l 43 45
l 42 46
